<?xml version="1.0" encoding="utf-8"?>
<!-- Generator: Adobe Illustrator 22.1.0, SVG Export Plug-In . SVG Version: 6.00 Build 0)  -->
<svg version="1.1" id="App_Icon" xmlns="http://www.w3.org/2000/svg" xmlns:xlink="http://www.w3.org/1999/xlink" x="0px" y="0px"
	 viewBox="0 0 2098.7 2098.7" style="enable-background:new 0 0 2098.7 2098.7;" xml:space="preserve">
<style type="text/css">
	.st0{fill:#FFFFFF;}
	.st1{fill:#E0E0E0;}
	.st2{fill:#3D3D3D;}
	.st3{fill:#0043C8;}
</style>
<rect id="Windows_tile" x="-1" y="0" class="st0" width="2098.7" height="2098.7"/>
<path id="iOS" class="st1" d="M617.7,2099.4c-76.3-0.5-154.4-4.2-198.3-9.5c-41.3-4.9-87.1-14.6-118.1-25
	c-23.1-7.7-55.1-22.5-76.6-35.4c-43.4-26.1-83.6-60.5-114.1-97.6c-28.1-34.2-47.7-65.8-64.2-103.6c-7.7-17.5-9.7-23-13.8-36.9
	c-18.8-63.5-27.3-124.8-30.8-222c-1.7-45.7-1.9-140.1-1.7-553.2c0.2-296.7,0.5-430.3,1-446.5c4.7-154.1,16.7-232.5,46.1-299.8
	c26.5-60.7,73.3-121.5,126-163.4c14.2-11.3,36.7-26.5,54.3-36.8c28.7-16.7,63.7-31.9,91.3-39.6C366.6,16.7,426.8,8.2,502,4.3
	c33-1.7,49.6-2.2,107.6-2.8C686.9,0.6,1507,1.1,1539.8,2c86.4,2.5,128.8,6,177.1,14.3c40.4,7,76.5,16.8,106.7,29.1
	c33.5,13.6,78.7,41.3,109.2,66.9c27.9,23.4,60.7,59.9,80.5,89.5c31.7,47.4,52,94.4,63.1,146.2c2.4,11.1,8.7,47,11.1,62.4
	c5.5,36.5,8.6,77,10.3,136.2c1,32.4,1.4,859.3,0.5,943.7c-0.8,74.8-2.1,114.3-5.3,153.7c-6.9,86.1-25.3,157.7-55.4,214.7
	c-9.1,17.2-21.8,37-35.4,55.1c-26.6,35.4-53.8,63-86.4,87.4c-56.3,42.3-109.6,65.7-183.3,80.5c-60.1,12-107.7,15.2-257.9,17.5
	C1442.2,2099.7,690.9,2099.8,617.7,2099.4L617.7,2099.4z"/>
<circle id="Round__x28_Android_x29_" class="st1" cx="1048.3" cy="1049.3" r="1049.3"/>
<g id="Icon">
	<path class="st2" d="M1548.9,1190l56.4-142.6h162.8l-77.3-216.3l96.6-244.4l276.8,734.9h-204.1l-47.3-131.6L1548.9,1190
		L1548.9,1190z"/>
	<path class="st3" d="M1374.8,1321.6l296.3-734.9h-196.5l-202.7,474.9l-144.1-474.9h-151L822,1061.6L712.9,845.2l-98.8,304.3
		l100.3,172.1h193.3l139.9-425.9l133.3,425.9H1374.8z"/>
	<path class="st2" d="M298.8,1069.3h121c36.7,0,69.3-4.1,97.9-12.3l31.3-96.4l87.5-269.4c-6.7-10.6-14.3-20.5-22.8-30
		c-44.9-49.7-110.6-74.6-197.1-74.6H112.3v734.9h186.5V1069.3z M458.9,755.8c17.5,17.7,26.3,41.3,26.3,70.9c0,29.8-7.7,53.5-23.1,71
		c-16.9,19.4-48,29.1-93.4,29.1h-69.9V729.3h70.4C411.5,729.3,441.4,738.1,458.9,755.8z"/>
</g>
</svg>
